<?xml version="1.0" standalone="no"?>
<!DOCTYPE svg PUBLIC "-//W3C//DTD SVG 20010904//EN"
<svg version="1.0" xmlns="http://www.w3.org/2000/svg"
 width="512.000000pt" height="512.000000pt" viewBox="0 0 512.000000 512.000000"
 preserveAspectRatio="xMidYMid meet">
<metadata>
Created by potrace 1.16, written by Peter Selinger 2001-2019
</metadata>
<g transform="translate(0.000000,512.000000) scale(0.100000,-0.100000)"
fill="#000000" stroke="none">
<path d="M2310 5113 c-485 -49 -947 -234 -1330 -531 -117 -91 -316 -287 -413
-407 -279 -346 -461 -750 -539 -1199 -29 -172 -37 -551 -14 -726 43 -322 122
-581 263 -858 118 -233 256 -424 448 -621 414 -425 923 -678 1525 -757 174
-22 553 -15 726 15 262 45 485 117 719 232 248 122 448 263 654 464 397 387
647 864 742 1419 30 174 37 541 15 726 -92 751 -507 1419 -1141 1836 -329 216
-695 350 -1085 399 -113 14 -466 19 -570 8z m495 -223 c289 -32 556 -111 812
-240 715 -361 1191 -1056 1274 -1858 16 -159 7 -465 -20 -617 -82 -472 -293
-892 -626 -1244 -194 -204 -490 -407 -765 -524 -882 -374 -1893 -179 -2573
496 -353 351 -583 804 -664 1312 -25 158 -25 537 0 690 63 377 179 671 387
980 366 543 962 908 1630 999 125 17 418 20 545 6z"/>
<path d="M2382 4689 c-750 -67 -1406 -514 -1735 -1182 -254 -515 -293 -1083
-111 -1626 212 -637 708 -1133 1345 -1345 417 -139 846 -149 1263 -30 1051
302 1706 1343 1521 2419 -166 962 -973 1692 -1950 1765 -156 11 -198 11 -333
-1z m68 -333 c0 -101 2 -117 23 -147 43 -63 131 -63 174 0 21 30 23 46 23 149
l0 115 78 -6 c117 -9 283 -44 416 -88 698 -229 1206 -842 1301 -1572 8 -65 15
-122 15 -128 0 -5 -50 -9 -119 -9 -106 0 -121 -2 -152 -23 -65 -43 -65 -131 0
-174 31 -21 46 -23 152 -23 66 0 119 -3 119 -7 0 -5 -5 -48 -10 -98 -76 -659
-478 -1227 -1075 -1515 -121 -59 -284 -117 -408 -144 -57 -13 -277 -46 -308
-46 -5 0 -9 50 -9 119 0 106 -2 121 -23 152 -43 65 -131 65 -174 0 -21 -31
-23 -46 -23 -152 0 -69 -4 -119 -9 -119 -6 0 -61 7 -123 15 -814 107 -1467
712 -1633 1512 -13 63 -27 153 -31 199 l-7 84 115 0 c103 0 119 2 149 23 63
43 63 131 0 174 -30 21 -46 23 -149 23 l-115 0 7 80 c28 338 178 710 400 995
68 87 229 247 321 320 209 164 447 282 702 349 115 30 254 54 326 55 l47 1 0
-114z"/>
<path d="M2839 3275 c-337 -169 -627 -316 -642 -327 -21 -15 -106 -175 -343
-651 -336 -671 -329 -653 -289 -714 8 -12 33 -28 56 -34 l41 -13 616 308 c340
169 631 318 647 331 23 17 104 171 344 653 l315 630 -13 41 c-6 23 -22 48 -34
56 -61 39 -44 46 -698 -280z m175 -446 l-186 -374 -82 -40 c-78 -38 -85 -39
-181 -40 -85 0 -107 4 -148 24 -61 30 -126 94 -154 150 l-22 43 46 92 46 92
431 216 c237 119 432 215 434 213 2 -2 -81 -171 -184 -376z"/>
<path d="M2515 2661 c-40 -17 -60 -51 -60 -101 0 -58 30 -96 83 -106 104 -20
174 113 98 185 -26 25 -89 36 -121 22z"/>
</g>
</svg>
